<svg xmlns="http://www.w3.org/2000/svg" width="1024" height="1024" viewBox="0 0 1024 1024">
  <defs>
    <linearGradient id="tile" x1="40" y1="22" x2="984" y2="1002" gradientUnits="userSpaceOnUse">
      <stop stop-color="#17191D"/>
      <stop offset="0.52" stop-color="#090B0F"/>
      <stop offset="1" stop-color="#15100B"/>
    </linearGradient>
    <linearGradient id="rim" x1="110" y1="70" x2="900" y2="950" gradientUnits="userSpaceOnUse">
      <stop stop-color="#FFF1C8"/>
      <stop offset="0.34" stop-color="#E7BD6A"/>
      <stop offset="0.72" stop-color="#8E6729"/>
      <stop offset="1" stop-color="#F4D99A"/>
    </linearGradient>
    <radialGradient id="goldGlow" cx="0" cy="0" r="1" gradientTransform="translate(190 150) rotate(42) scale(610)">
      <stop stop-color="#F5CE79" stop-opacity=".25"/>
      <stop offset=".58" stop-color="#C9923F" stop-opacity=".06"/>
      <stop offset="1" stop-color="#C9923F" stop-opacity="0"/>
    </radialGradient>
    <radialGradient id="accentGlow" cx="0" cy="0" r="1" gradientTransform="translate(812 812) rotate(-132) scale(470)">
      <stop stop-color="#FF9FCF" stop-opacity=".24"/>
      <stop offset="1" stop-color="#FF9FCF" stop-opacity="0"/>
    </radialGradient>
    <filter id="glyphGlow" x="-40%" y="-40%" width="180%" height="180%">
      <feGaussianBlur stdDeviation="9" result="blur"/>
      <feComposite in="SourceGraphic" in2="blur" operator="over"/>
    </filter>
  </defs>

  <rect width="1024" height="1024" fill="url(#tile)"/>
  <rect width="1024" height="1024" fill="url(#goldGlow)"/>
  <rect width="1024" height="1024" fill="url(#accentGlow)"/>
  <g fill="none" stroke="#F8E4AE" stroke-opacity=".065" stroke-width="2">
    <path d="M0 256H1024M0 384H1024M0 512H1024M0 640H1024M0 768H1024"/>
    <path d="M256 0V1024M384 0V1024M512 0V1024M640 0V1024M768 0V1024"/>
  </g>
  <path d="M115 395C145 224 290 115 474 132C555 139 624 167 685 212"
        fill="none" stroke="url(#rim)" stroke-width="22" stroke-linecap="round" opacity=".66"/>
  <path d="M909 629C879 800 734 909 550 892C469 885 400 857 339 812"
        fill="none" stroke="url(#rim)" stroke-width="22" stroke-linecap="round" opacity=".66"/>
  <circle cx="118" cy="395" r="8" fill="#F7E0A8"/>
  <circle cx="906" cy="629" r="8" fill="#FF9FCF"/>
  <rect x="20" y="20" width="984" height="984" rx="224" fill="none"
        stroke="url(#rim)" stroke-width="7" opacity=".78"/>
  <rect x="34" y="34" width="956" height="956" rx="214" fill="none"
        stroke="#FFFFFF" stroke-width="2" opacity=".11"/>

  <g transform="translate(256 256)" color="#FF9FCF">
<path d="M191 137L93 256L191 375M321 137L419 256L321 375" fill="none" stroke="#FF9FCF" stroke-width="30" stroke-linecap="round" stroke-linejoin="round" />
  
<path d="M285 112L222 400" stroke="#FF9FCF" stroke-width="28" stroke-linecap="round" />
  
<path d="M364 80L373 111L404 120L373 129L364 160L355 129L324 120L355 111Z" fill="#F7E0A8" />

  </g>
</svg>
